<svg xmlns="http://www.w3.org/2000/svg" viewBox="0 0 256 228">
  <path fill="#000000" d="M119.62 24.815a6.537 6.537 0 0 0-5.12-2.644h-16.43a4.884 4.884 0 0 0-4.279 2.553L70.138 134.91l-13.124-69.38a5.496 5.496 0 0 0-5.303-4.21H41.428a4.632 4.632 0 0 0-4.294 2.644l-22.29 117.86 27.75-128.854a5.723 5.723 0 0 0-1.085-6.485 5.79 5.79 0 0 0-6.667-1.37L16.83 45.746a7.865 7.865 0 0 0-2.643 6.485l18.55 91.82L1.384 206.8a5.57 5.57 0 0 0 2.3 7.153 5.623 5.623 0 0 0 7.11-.51l23.52-32.61 26.86 124.56a5.616 5.616 0 0 0 5.59 4.485 5.576 5.576 0 0 0 4.8-2.644l66.47-135.67 34.61 70.39a5.584 5.584 0 0 0 9.13 2.989l17.75-21.89 17.54 52.88a5.583 5.583 0 0 0 9.66 2.478l26.666-25.97a5.635 5.635 0 0 0 .63-8.006l-21.95-43.39 13.49-98.32a5.51 5.51 0 0 0-3.34-6.08l-15.37-5.8z"/>
</svg>
