<svg width="568" height="568" viewBox="0 0 568 568" fill="none" xmlns="http://www.w3.org/2000/svg">
<g clip-path="url(#clip0_1095_9867)">
<mask id="mask0_1095_9867" style="mask-type:alpha" maskUnits="userSpaceOnUse" x="-118" y="-75" width="823" height="599">
<path d="M41.697 523.278C29.102 426.488 62.7939 224.011 298.322 188.42C533.849 152.829 560.596 -1.44513 544.529 -74.1336" stroke="#576FFF"/>
<path d="M-117.603 483.931C-61.4639 465.722 82.7198 441.17 210.343 488.632C369.872 547.959 240.384 204.414 336.63 109.688C432.877 14.9631 559.871 161.201 703.846 113.775" stroke="#303D8C"/>
<path d="M26.254 511.13C23.5558 464.476 36.838 392.556 78.3928 331.998C121.787 272.123 177.747 196.232 294.27 174.002C521.769 135.002 554.295 -1.94831 547.453 -73.1804" stroke="#556CF8"/>
<path d="M11.0797 499.194C11.9184 454.249 33.0692 385.177 79.7976 331.112C130.173 278.402 174.985 186.422 290.29 159.834C509.899 117.485 548.103 -2.44269 550.328 -72.2438" stroke="#5369F2"/>
<path d="M-3.82565 487.468C0.487112 444.203 29.3672 377.928 81.1777 330.241C138.41 284.57 172.273 176.786 286.38 145.917C498.239 100.278 542.021 -2.92871 553.151 -71.3241" stroke="#5067EB"/>
<path d="M-18.4642 475.956C-10.7399 434.34 25.7302 370.811 82.5312 329.387C146.497 290.628 169.607 167.325 282.539 132.253C486.787 83.3818 536.047 -3.40447 555.921 -70.4196" stroke="#4E64E5"/>
<path d="M-32.8339 464.653C-21.7607 424.656 22.16 363.824 83.8599 328.548C154.436 296.573 166.991 158.036 278.768 118.838C475.546 66.7948 530.183 -3.87287 558.641 -69.533" stroke="#4C61DF"/>
<path d="M-42.3065 460.863C-27.9471 422.455 23.285 364.268 89.7921 335.026C166.855 309.709 169.052 156.222 279.696 112.974C469.143 57.8192 529.057 2.9687 565.939 -61.3617" stroke="#4A5ED9"/>
<path d="M-48.6775 461.759C-31.0944 424.909 27.3097 369.318 98.5324 345.994C181.958 327.208 173.994 159.056 283.528 111.837C465.784 53.6286 530.873 14.2938 576.018 -48.7323" stroke="#485CD3"/>
<path d="M-54.7608 462.894C-34.0167 427.573 31.4201 374.526 107.267 357.006C196.932 344.625 179.005 162.093 287.449 110.979C462.653 49.7765 532.818 25.6561 586.066 -36.0911" stroke="#4659CD"/>
<path d="M-60.601 464.198C-36.7585 430.375 35.5716 379.822 115.951 367.99C211.732 361.886 184.039 165.26 291.415 110.328C459.708 46.1909 534.847 36.9835 596.037 -23.51" stroke="#4457C7"/>
<path d="M-66.2343 465.619C-39.356 433.264 39.7283 385.155 124.548 378.897C226.322 378.943 189.06 168.507 295.39 109.834C456.91 42.8221 536.924 48.2262 605.896 -11.039" stroke="#4254C2"/>
<path d="M-71.6814 467.12C-41.83 436.202 43.869 390.487 133.038 389.687C240.68 395.757 194.047 171.796 299.353 109.46C454.241 39.6319 539.028 59.3461 615.621 1.28388" stroke="#4052BC"/>
<path d="M-76.9592 468.677C-44.1972 439.166 47.9772 395.794 141.404 400.338C254.791 412.304 198.984 175.102 303.287 109.181C451.682 36.596 541.143 70.3189 625.196 13.4343" stroke="#3F50B7"/>
<path d="M-82.0984 470.239C-46.4885 442.105 52.022 401.026 149.615 410.798C268.623 428.534 203.84 178.377 307.161 108.946C449.203 33.6642 543.236 81.0945 634.59 25.3622" stroke="#3D4DB2"/>
<path d="M-87.1244 471.766C-48.7292 444.979 55.9781 406.142 157.645 421.028C282.151 444.407 208.589 181.579 310.951 108.717C446.779 30.7966 545.284 91.6328 643.777 37.0275" stroke="#3B4BAD"/>
<path d="M-92.0373 473.259C-50.9194 447.788 59.8453 411.143 165.495 431.028C295.375 459.923 213.232 184.71 314.655 108.492C444.41 27.9935 547.287 101.934 652.758 48.4306" stroke="#3949A8"/>
<path d="M-96.7923 474.789C-53.0143 450.604 63.6685 416.1 173.21 440.868C308.34 475.153 217.813 187.839 318.319 108.344C442.14 25.3255 549.287 112.069 661.578 59.6419" stroke="#3847A3"/>
<path d="M-101.307 476.488C-54.9314 453.559 67.5302 421.147 180.871 450.684C321.128 490.231 222.414 191.1 322.025 108.405C440.052 22.9267 551.37 122.172 670.318 70.7958" stroke="#36459E"/>
<path d="M-105.618 478.292C-56.7081 456.588 71.393 426.217 188.442 460.407C333.703 505.09 226.999 194.428 325.736 108.61C438.108 20.7306 553.496 132.176 678.942 81.8256" stroke="#354399"/>
<path d="M-109.759 480.152C-58.3765 459.644 75.2248 431.263 195.89 469.992C346.03 519.683 231.535 197.775 329.42 108.911C436.277 18.6901 555.634 142.035 687.417 92.6844" stroke="#334195"/>
<path d="M-113.75 482.039C-59.958 462.696 79.0041 436.254 203.194 479.407C358.091 533.98 236 201.111 333.055 109.277C434.537 16.7748 557.763 151.717 695.722 103.341" stroke="#313F90"/>
</mask>
<g mask="url(#mask0_1095_9867)">
<g filter="url(#filter0_f_1095_9867)">
<circle cx="284.5" cy="284.5" r="245.5" fill="url(#paint0_radial_1095_9867)"/>
</g>
</g>
<g opacity="0.2" filter="url(#filter1_f_1095_9867)">
<circle cx="284" cy="284" r="172" fill="#576FFF"/>
</g>
<g opacity="0.2" filter="url(#filter2_f_1095_9867)">
<circle cx="284.001" cy="284" r="180.337" fill="#576FFF"/>
</g>
<g opacity="0.5">
<path d="M118.145 284.236C118.145 192.799 192.269 118.674 283.707 118.674C375.144 118.674 449.269 192.799 449.269 284.236C449.269 375.674 375.144 449.798 283.707 449.798C192.269 449.798 118.145 375.674 118.145 284.236Z" fill="url(#paint1_linear_1095_9867)" fill-opacity="0.13"/>
<path d="M118.645 284.236C118.645 193.075 192.545 119.174 283.707 119.174C374.868 119.174 448.769 193.075 448.769 284.236C448.769 375.398 374.868 449.298 283.707 449.298C192.545 449.298 118.645 375.398 118.645 284.236Z" stroke="url(#paint2_linear_1095_9867)" stroke-opacity="0.16" stroke-linejoin="round"/>
</g>
<g filter="url(#filter3_b_1095_9867)">
<circle cx="284.5" cy="284.5" r="139.5" fill="#0C1023" fill-opacity="0.25"/>
</g>
<g clip-path="url(#clip1_1095_9867)">
<path d="M276.992 177.058C276.532 177.099 275.068 177.246 273.75 177.35C243.355 180.09 214.884 196.488 196.852 221.692C186.811 235.705 180.389 251.601 177.962 268.439C177.105 274.316 177 276.052 177 284.021C177 291.99 177.105 293.726 177.962 299.603C183.778 339.782 212.374 373.541 251.157 386.048C258.102 388.286 265.424 389.813 273.75 390.733C276.992 391.089 291.008 391.089 294.25 390.733C308.622 389.144 320.796 385.588 332.804 379.46C334.645 378.518 335 378.268 334.749 378.058C334.582 377.933 326.737 367.412 317.324 354.695L300.212 331.583L278.77 299.854C266.972 282.41 257.266 268.146 257.182 268.146C257.098 268.125 257.015 282.222 256.973 299.436C256.91 329.576 256.889 330.789 256.513 331.5C255.969 332.525 255.55 332.943 254.672 333.403C254.002 333.738 253.417 333.801 250.258 333.801H246.639L245.677 333.194C245.049 332.797 244.589 332.274 244.275 331.667L243.836 330.726L243.878 288.79L243.94 246.833L244.589 246.017C244.924 245.578 245.635 245.013 246.137 244.741C246.995 244.323 247.329 244.281 250.948 244.281C255.216 244.281 255.927 244.448 257.036 245.661C257.349 245.996 268.959 263.482 282.849 284.544C296.74 305.606 315.734 334.365 325.064 348.483L342.008 374.147L342.866 373.582C350.459 368.646 358.492 361.619 364.851 354.298C378.386 338.758 387.109 319.808 390.038 299.603C390.895 293.726 391 291.99 391 284.021C391 276.052 390.895 274.316 390.038 268.439C384.222 228.259 355.626 194.501 316.843 181.994C310.002 179.777 302.722 178.25 294.564 177.329C292.556 177.12 278.728 176.89 276.992 177.058ZM320.796 241.771C321.8 242.273 322.616 243.235 322.909 244.239C323.076 244.783 323.118 256.412 323.076 282.62L323.014 320.226L316.382 310.061L309.73 299.896V272.559C309.73 254.885 309.814 244.95 309.939 244.469C310.274 243.298 311.006 242.378 312.01 241.834C312.868 241.395 313.182 241.353 316.466 241.353C319.562 241.353 320.106 241.395 320.796 241.771Z" fill="#E8E9EE"/>
</g>
</g>
<defs>
<filter id="filter0_f_1095_9867" x="-85" y="-85" width="739" height="739" filterUnits="userSpaceOnUse" color-interpolation-filters="sRGB">
<feFlood flood-opacity="0" result="BackgroundImageFix"/>
<feBlend mode="normal" in="SourceGraphic" in2="BackgroundImageFix" result="shape"/>
<feGaussianBlur stdDeviation="62" result="effect1_foregroundBlur_1095_9867"/>
</filter>
<filter id="filter1_f_1095_9867" x="-48" y="-48" width="664" height="664" filterUnits="userSpaceOnUse" color-interpolation-filters="sRGB">
<feFlood flood-opacity="0" result="BackgroundImageFix"/>
<feBlend mode="normal" in="SourceGraphic" in2="BackgroundImageFix" result="shape"/>
<feGaussianBlur stdDeviation="80" result="effect1_foregroundBlur_1095_9867"/>
</filter>
<filter id="filter2_f_1095_9867" x="23.6641" y="23.6631" width="520.674" height="520.673" filterUnits="userSpaceOnUse" color-interpolation-filters="sRGB">
<feFlood flood-opacity="0" result="BackgroundImageFix"/>
<feBlend mode="normal" in="SourceGraphic" in2="BackgroundImageFix" result="shape"/>
<feGaussianBlur stdDeviation="40" result="effect1_foregroundBlur_1095_9867"/>
</filter>
<filter id="filter3_b_1095_9867" x="137" y="137" width="295" height="295" filterUnits="userSpaceOnUse" color-interpolation-filters="sRGB">
<feFlood flood-opacity="0" result="BackgroundImageFix"/>
<feGaussianBlur in="BackgroundImageFix" stdDeviation="4"/>
<feComposite in2="SourceAlpha" operator="in" result="effect1_backgroundBlur_1095_9867"/>
<feBlend mode="normal" in="SourceGraphic" in2="effect1_backgroundBlur_1095_9867" result="shape"/>
</filter>
<radialGradient id="paint0_radial_1095_9867" cx="0" cy="0" r="1" gradientUnits="userSpaceOnUse" gradientTransform="translate(149.593 138.612) rotate(43.4709) scale(270.194)">
<stop stop-color="#576FFF"/>
<stop offset="1" stop-color="#1D2654"/>
</radialGradient>
<linearGradient id="paint1_linear_1095_9867" x1="118.591" y1="118.674" x2="517.348" y2="300.476" gradientUnits="userSpaceOnUse">
<stop stop-color="#979BB0"/>
<stop offset="1" stop-color="#2E313D"/>
</linearGradient>
<linearGradient id="paint2_linear_1095_9867" x1="118.591" y1="118.674" x2="517.348" y2="300.476" gradientUnits="userSpaceOnUse">
<stop stop-color="#576FFF"/>
<stop offset="1" stop-color="#2E313D"/>
</linearGradient>
<clipPath id="clip0_1095_9867">
<rect width="568" height="568" fill="white"/>
</clipPath>
<clipPath id="clip1_1095_9867">
<rect width="214" height="214" fill="white" transform="translate(177 177)"/>
</clipPath>
</defs>
</svg>
